<mxfile host="app.diagrams.net" modified="2024-01-27T19:03:23.841Z" agent="Mozilla/5.0 (Macintosh; Intel Mac OS X 10_15_7) AppleWebKit/537.36 (KHTML, like Gecko) Chrome/120.0.0.0 Safari/537.36" etag="b5oQo5_rohz6M2vc492V" version="23.0.2" type="device">
  <diagram name="PÃ¡gina-1" id="T1su75DypBdtvmDGSEQB">
    <mxGraphModel dx="1101" dy="1764" grid="1" gridSize="10" guides="1" tooltips="1" connect="1" arrows="1" fold="1" page="1" pageScale="1" pageWidth="827" pageHeight="1169" math="0" shadow="0">
      <root>
        <mxCell id="0" />
        <mxCell id="1" parent="0" />
        <mxCell id="SH1fgJT_5DAzZ175qMeg-32" value="Batch prediction" style="rounded=1;whiteSpace=wrap;html=1;align=left;verticalAlign=top;spacingLeft=20;fontStyle=1;fillColor=default;" vertex="1" parent="1">
          <mxGeometry y="70" width="830" height="250" as="geometry" />
        </mxCell>
        <mxCell id="SH1fgJT_5DAzZ175qMeg-26" value="" style="rounded=0;whiteSpace=wrap;html=1;dashed=1;fillColor=#ffe6cc;strokeColor=#d79b00;" vertex="1" parent="1">
          <mxGeometry x="618" y="127.96999999999998" width="201.17" height="82.03" as="geometry" />
        </mxCell>
        <mxCell id="SH1fgJT_5DAzZ175qMeg-19" value="" style="rounded=0;whiteSpace=wrap;html=1;dashed=1;fillColor=#fff2cc;strokeColor=#d6b656;" vertex="1" parent="1">
          <mxGeometry x="411" y="128.98" width="201.17" height="82.03" as="geometry" />
        </mxCell>
        <mxCell id="SH1fgJT_5DAzZ175qMeg-14" value="" style="rounded=0;whiteSpace=wrap;html=1;dashed=1;fillColor=#fff2cc;strokeColor=#d6b656;" vertex="1" parent="1">
          <mxGeometry x="201.82999999999998" y="128.98" width="201.17" height="82.03" as="geometry" />
        </mxCell>
        <mxCell id="SH1fgJT_5DAzZ175qMeg-7" value="" style="rounded=0;whiteSpace=wrap;html=1;dashed=1;fillColor=#fff2cc;strokeColor=#d6b656;" vertex="1" parent="1">
          <mxGeometry x="12" y="130" width="180" height="80" as="geometry" />
        </mxCell>
        <mxCell id="SH1fgJT_5DAzZ175qMeg-1" value="get input data" style="rounded=1;whiteSpace=wrap;html=1;fillColor=#e1d5e7;strokeColor=#9673a6;opacity=40;" vertex="1" parent="1">
          <mxGeometry x="42" y="250" width="120" height="60" as="geometry" />
        </mxCell>
        <mxCell id="SH1fgJT_5DAzZ175qMeg-3" value="" style="outlineConnect=0;dashed=0;verticalLabelPosition=bottom;verticalAlign=top;align=center;html=1;shape=mxgraph.aws3.s3;fillColor=#E05243;gradientColor=none;aspect=fixed;" vertex="1" parent="1">
          <mxGeometry x="32" y="147.82" width="36.5" height="44.37" as="geometry" />
        </mxCell>
        <mxCell id="SH1fgJT_5DAzZ175qMeg-5" value="" style="verticalLabelPosition=bottom;html=1;verticalAlign=top;align=center;strokeColor=none;fillColor=#00BEF2;shape=mxgraph.azure.sql_database;" vertex="1" parent="1">
          <mxGeometry x="638" y="143.66" width="37.5" height="50" as="geometry" />
        </mxCell>
        <mxCell id="SH1fgJT_5DAzZ175qMeg-6" value="" style="shape=image;html=1;verticalAlign=top;verticalLabelPosition=bottom;labelBackgroundColor=#ffffff;imageAspect=0;aspect=fixed;image=https://cdn3.iconfinder.com/data/icons/brands-applications/512/Excel_D-128.png" vertex="1" parent="1">
          <mxGeometry x="132" y="146" width="48" height="48" as="geometry" />
        </mxCell>
        <mxCell id="SH1fgJT_5DAzZ175qMeg-8" value="" style="endArrow=classic;html=1;rounded=0;exitX=0.5;exitY=1;exitDx=0;exitDy=0;entryX=0.5;entryY=0;entryDx=0;entryDy=0;dashed=1;" edge="1" parent="1" source="SH1fgJT_5DAzZ175qMeg-7" target="SH1fgJT_5DAzZ175qMeg-1">
          <mxGeometry width="50" height="50" relative="1" as="geometry">
            <mxPoint x="132" y="260" as="sourcePoint" />
            <mxPoint x="182" y="210" as="targetPoint" />
          </mxGeometry>
        </mxCell>
        <mxCell id="SH1fgJT_5DAzZ175qMeg-9" value="load model" style="rounded=1;whiteSpace=wrap;html=1;fillColor=#e1d5e7;strokeColor=#9673a6;opacity=40;" vertex="1" parent="1">
          <mxGeometry x="242.41999999999996" y="250" width="120" height="60" as="geometry" />
        </mxCell>
        <mxCell id="SH1fgJT_5DAzZ175qMeg-10" value="" style="shape=image;verticalLabelPosition=bottom;labelBackgroundColor=default;verticalAlign=top;aspect=fixed;imageAspect=0;image=https://www.databricks.com/wp-content/uploads/2021/06/MLflow-logo-pos-TM-1.png;" vertex="1" parent="1">
          <mxGeometry x="259" y="153.66" width="77.65" height="30" as="geometry" />
        </mxCell>
        <mxCell id="SH1fgJT_5DAzZ175qMeg-11" value="" style="shape=image;verticalLabelPosition=bottom;labelBackgroundColor=default;verticalAlign=top;aspect=fixed;imageAspect=0;image=https://upload.wikimedia.org/wikipedia/commons/thumb/0/05/Scikit_learn_logo_small.svg/2560px-Scikit_learn_logo_small.svg.png;" vertex="1" parent="1">
          <mxGeometry x="456" y="175.47" width="45" height="24.22" as="geometry" />
        </mxCell>
        <mxCell id="SH1fgJT_5DAzZ175qMeg-12" value="" style="shape=image;verticalLabelPosition=bottom;labelBackgroundColor=default;verticalAlign=top;aspect=fixed;imageAspect=0;image=https://seeklogo.com/images/D/databricks-logo-2F2F1E37DB-seeklogo.com.png;" vertex="1" parent="1">
          <mxGeometry x="343" y="153.66" width="58" height="32.67" as="geometry" />
        </mxCell>
        <mxCell id="SH1fgJT_5DAzZ175qMeg-13" value="" style="outlineConnect=0;dashed=0;verticalLabelPosition=bottom;verticalAlign=top;align=center;html=1;shape=mxgraph.aws3.s3;fillColor=#E05243;gradientColor=none;aspect=fixed;" vertex="1" parent="1">
          <mxGeometry x="209" y="146.47" width="36.5" height="44.37" as="geometry" />
        </mxCell>
        <mxCell id="SH1fgJT_5DAzZ175qMeg-15" value="" style="endArrow=classic;html=1;rounded=0;exitX=0.5;exitY=1;exitDx=0;exitDy=0;entryX=0.5;entryY=0;entryDx=0;entryDy=0;dashed=1;" edge="1" parent="1" source="SH1fgJT_5DAzZ175qMeg-14" target="SH1fgJT_5DAzZ175qMeg-9">
          <mxGeometry width="50" height="50" relative="1" as="geometry">
            <mxPoint x="119" y="240" as="sourcePoint" />
            <mxPoint x="169" y="190" as="targetPoint" />
          </mxGeometry>
        </mxCell>
        <mxCell id="SH1fgJT_5DAzZ175qMeg-16" value="" style="shape=image;verticalLabelPosition=bottom;labelBackgroundColor=default;verticalAlign=top;aspect=fixed;imageAspect=0;image=https://miro.medium.com/v2/resize:fit:588/0*uPOoAK6fpqDWKEnY.png;" vertex="1" parent="1">
          <mxGeometry x="501" y="132.58" width="65.5" height="47.67" as="geometry" />
        </mxCell>
        <mxCell id="SH1fgJT_5DAzZ175qMeg-17" value="" style="shape=image;verticalLabelPosition=bottom;labelBackgroundColor=default;verticalAlign=top;aspect=fixed;imageAspect=0;image=https://static-00.iconduck.com/assets.00/tensorflow-icon-955x1024-hd4xzbqj.png;" vertex="1" parent="1">
          <mxGeometry x="421" y="132.58" width="40" height="42.89" as="geometry" />
        </mxCell>
        <mxCell id="SH1fgJT_5DAzZ175qMeg-18" value="" style="shape=image;verticalLabelPosition=bottom;labelBackgroundColor=default;verticalAlign=top;aspect=fixed;imageAspect=0;image=https://cdn.icon-icons.com/icons2/2699/PNG/512/pytorch_logo_icon_169823.png;" vertex="1" parent="1">
          <mxGeometry x="531" y="168.32999999999998" width="77" height="38.5" as="geometry" />
        </mxCell>
        <mxCell id="SH1fgJT_5DAzZ175qMeg-20" value="run prediction" style="rounded=1;whiteSpace=wrap;html=1;fillColor=#e1d5e7;strokeColor=#9673a6;opacity=40;" vertex="1" parent="1">
          <mxGeometry x="451.59000000000003" y="250" width="120" height="60" as="geometry" />
        </mxCell>
        <mxCell id="SH1fgJT_5DAzZ175qMeg-21" value="" style="endArrow=classic;html=1;rounded=0;exitX=0.5;exitY=1;exitDx=0;exitDy=0;entryX=0.5;entryY=0;entryDx=0;entryDy=0;dashed=1;" edge="1" parent="1" source="SH1fgJT_5DAzZ175qMeg-19" target="SH1fgJT_5DAzZ175qMeg-20">
          <mxGeometry width="50" height="50" relative="1" as="geometry">
            <mxPoint x="321" y="340" as="sourcePoint" />
            <mxPoint x="371" y="290" as="targetPoint" />
          </mxGeometry>
        </mxCell>
        <mxCell id="SH1fgJT_5DAzZ175qMeg-22" value="" style="verticalLabelPosition=bottom;html=1;verticalAlign=top;align=center;strokeColor=none;fillColor=#00BEF2;shape=mxgraph.azure.sql_database;" vertex="1" parent="1">
          <mxGeometry x="83.25" y="145" width="37.5" height="50" as="geometry" />
        </mxCell>
        <mxCell id="SH1fgJT_5DAzZ175qMeg-24" value="" style="outlineConnect=0;dashed=0;verticalLabelPosition=bottom;verticalAlign=top;align=center;html=1;shape=mxgraph.aws3.s3;fillColor=#E05243;gradientColor=none;aspect=fixed;" vertex="1" parent="1">
          <mxGeometry x="700.34" y="147.81" width="36.5" height="44.37" as="geometry" />
        </mxCell>
        <mxCell id="SH1fgJT_5DAzZ175qMeg-25" value="" style="shape=image;verticalLabelPosition=bottom;labelBackgroundColor=default;verticalAlign=top;aspect=fixed;imageAspect=0;image=https://cdn.icon-icons.com/icons2/2248/PNG/512/apache_kafka_icon_138937.png;" vertex="1" parent="1">
          <mxGeometry x="758" y="145.72" width="48.54" height="48.54" as="geometry" />
        </mxCell>
        <mxCell id="SH1fgJT_5DAzZ175qMeg-27" value="store results" style="rounded=1;whiteSpace=wrap;html=1;fillColor=#e1d5e7;strokeColor=#9673a6;opacity=40;" vertex="1" parent="1">
          <mxGeometry x="658.59" y="250" width="120" height="60" as="geometry" />
        </mxCell>
        <mxCell id="SH1fgJT_5DAzZ175qMeg-28" value="" style="endArrow=classic;html=1;rounded=0;exitX=1;exitY=0.5;exitDx=0;exitDy=0;" edge="1" parent="1" source="SH1fgJT_5DAzZ175qMeg-1" target="SH1fgJT_5DAzZ175qMeg-9">
          <mxGeometry width="50" height="50" relative="1" as="geometry">
            <mxPoint x="190" y="180" as="sourcePoint" />
            <mxPoint x="240" y="130" as="targetPoint" />
          </mxGeometry>
        </mxCell>
        <mxCell id="SH1fgJT_5DAzZ175qMeg-29" value="" style="endArrow=classic;html=1;rounded=0;exitX=1;exitY=0.5;exitDx=0;exitDy=0;entryX=0;entryY=0.5;entryDx=0;entryDy=0;" edge="1" parent="1" source="SH1fgJT_5DAzZ175qMeg-9" target="SH1fgJT_5DAzZ175qMeg-20">
          <mxGeometry width="50" height="50" relative="1" as="geometry">
            <mxPoint x="190" y="180" as="sourcePoint" />
            <mxPoint x="240" y="130" as="targetPoint" />
          </mxGeometry>
        </mxCell>
        <mxCell id="SH1fgJT_5DAzZ175qMeg-30" value="" style="endArrow=classic;html=1;rounded=0;exitX=1;exitY=0.5;exitDx=0;exitDy=0;entryX=0;entryY=0.5;entryDx=0;entryDy=0;" edge="1" parent="1" source="SH1fgJT_5DAzZ175qMeg-20" target="SH1fgJT_5DAzZ175qMeg-27">
          <mxGeometry width="50" height="50" relative="1" as="geometry">
            <mxPoint x="190" y="180" as="sourcePoint" />
            <mxPoint x="240" y="130" as="targetPoint" />
          </mxGeometry>
        </mxCell>
        <mxCell id="SH1fgJT_5DAzZ175qMeg-31" value="" style="endArrow=classic;html=1;rounded=0;exitX=0.5;exitY=1;exitDx=0;exitDy=0;entryX=0.5;entryY=0;entryDx=0;entryDy=0;dashed=1;" edge="1" parent="1" source="SH1fgJT_5DAzZ175qMeg-26" target="SH1fgJT_5DAzZ175qMeg-27">
          <mxGeometry width="50" height="50" relative="1" as="geometry">
            <mxPoint x="540" y="180" as="sourcePoint" />
            <mxPoint x="590" y="130" as="targetPoint" />
          </mxGeometry>
        </mxCell>
        <mxCell id="SH1fgJT_5DAzZ175qMeg-33" value="Configuration file" style="shape=image;verticalLabelPosition=top;labelBackgroundColor=default;verticalAlign=bottom;aspect=fixed;imageAspect=0;image=https://uxwing.com/wp-content/themes/uxwing/download/file-and-folder-type/yaml-file-format-icon.png;labelPosition=center;align=center;" vertex="1" parent="1">
          <mxGeometry x="390" y="-9.999999999999972" width="50" height="49.61" as="geometry" />
        </mxCell>
        <mxCell id="SH1fgJT_5DAzZ175qMeg-34" value="" style="endArrow=classic;html=1;rounded=0;exitX=0.5;exitY=1;exitDx=0;exitDy=0;entryX=0.5;entryY=0;entryDx=0;entryDy=0;" edge="1" parent="1" source="SH1fgJT_5DAzZ175qMeg-33" target="SH1fgJT_5DAzZ175qMeg-32">
          <mxGeometry width="50" height="50" relative="1" as="geometry">
            <mxPoint x="330" y="120" as="sourcePoint" />
            <mxPoint x="380" y="70" as="targetPoint" />
          </mxGeometry>
        </mxCell>
        <mxCell id="SH1fgJT_5DAzZ175qMeg-35" value="" style="shape=image;verticalLabelPosition=bottom;labelBackgroundColor=default;verticalAlign=top;aspect=fixed;imageAspect=0;image=https://static-00.iconduck.com/assets.00/docker-icon-icon-2048x1479-cres2he9.png;" vertex="1" parent="1">
          <mxGeometry x="120.75" y="73.99999999999997" width="34" height="24.57" as="geometry" />
        </mxCell>
      </root>
    </mxGraphModel>
  </diagram>
</mxfile>
